<svg aria-hidden="true" style="position: absolute; width: 0; height: 0; overflow: hidden;" version="1.1" xmlns="http://www.w3.org/2000/svg" xmlns:xlink="http://www.w3.org/1999/xlink">
<defs>
<symbol id="icon-arrow-right" viewBox="0 0 18 18">
<path fill="#1d428b" style="fill: var(--color1, #1d428b)" d="M17.866 8.429c-0.076-0.192-0.184-0.356-0.318-0.495l0 0-7.495-7.494c-0.272-0.27-0.647-0.437-1.060-0.437-0.831 0-1.505 0.674-1.505 1.505 0 0.414 0.167 0.788 0.437 1.060l-0-0 4.946 4.931h-11.372c-0.828 0-1.499 0.671-1.499 1.499s0.671 1.499 1.499 1.499h11.376l-4.946 4.931c-0.298 0.276-0.484 0.669-0.484 1.105 0 0.831 0.674 1.505 1.505 1.505 0.436 0 0.828-0.185 1.103-0.481l0.001-0.001 7.494-7.494c0.263-0.277 0.425-0.653 0.425-1.066 0-0.204-0.040-0.399-0.111-0.578l0.004 0.010z"></path>
</symbol>
<symbol id="icon-arrow-right-white" viewBox="0 0 18 18">
<path fill="#fff" style="fill: var(--color2, #fff)" d="M17.866 8.429c-0.076-0.192-0.184-0.356-0.318-0.495l0 0-7.495-7.494c-0.272-0.27-0.647-0.437-1.060-0.437-0.831 0-1.505 0.674-1.505 1.505 0 0.414 0.167 0.788 0.437 1.060l-0-0 4.946 4.931h-11.372c-0.828 0-1.499 0.671-1.499 1.499s0.671 1.499 1.499 1.499h11.376l-4.946 4.931c-0.298 0.276-0.484 0.669-0.484 1.105 0 0.831 0.674 1.505 1.505 1.505 0.436 0 0.828-0.185 1.103-0.481l0.001-0.001 7.494-7.494c0.263-0.277 0.425-0.653 0.425-1.066 0-0.204-0.040-0.399-0.111-0.578l0.004 0.010z"></path>
</symbol>
<symbol id="icon-audio" viewBox="0 0 13 18">
<path d="M6.546 11.454c1.808 0 3.273-1.465 3.273-3.273v-4.909c0-1.808-1.465-3.273-3.273-3.273s-3.273 1.465-3.273 3.273v0 4.909c0 1.808 1.465 3.273 3.273 3.273v0zM4.909 3.273c0-0.904 0.733-1.636 1.636-1.636s1.636 0.733 1.636 1.636v0 4.909c0 0.904-0.733 1.636-1.636 1.636s-1.636-0.733-1.636-1.636v0zM13.090 8.182c-0.013-0.442-0.374-0.795-0.818-0.795s-0.805 0.353-0.818 0.794l-0 0.001c0 2.711-2.198 4.909-4.909 4.909s-4.909-2.198-4.909-4.909v0c-0.013-0.442-0.374-0.795-0.818-0.795s-0.805 0.353-0.818 0.794l-0 0.001c0.003 3.324 2.484 6.068 5.694 6.485l0.033 0.003v1.694h-1.636c-0.007-0-0.015-0-0.023-0-0.452 0-0.818 0.366-0.818 0.818s0.366 0.818 0.818 0.818c0.008 0 0.016-0 0.024-0l-0.001 0h4.909c0.442-0.013 0.795-0.374 0.795-0.818s-0.353-0.805-0.794-0.818l-0.001-0h-1.636v-1.694c3.244-0.421 5.724-3.164 5.727-6.488v-0z"></path>
</symbol>
<symbol id="icon-bell" viewBox="0 0 14 18">
<path fill="#1c3668" style="fill: var(--color3, #1c3668)" d="M12.63 10.086v-2.87c-0.002-2.669-1.936-4.885-4.479-5.327l-0.032-0.005v-0.982c0-0.498-0.404-0.902-0.902-0.902s-0.902 0.404-0.902 0.902v0 0.984c-2.575 0.446-4.508 2.662-4.511 5.329v2.869c-1.058 0.382-1.801 1.377-1.804 2.545v1.804c0 0.498 0.404 0.902 0.902 0.902h2.833c0.429 1.548 1.825 2.665 3.482 2.665s3.053-1.117 3.476-2.639l0.006-0.025h2.833c0.498-0 0.902-0.404 0.902-0.902v-1.804c-0.003-1.168-0.746-2.162-1.785-2.538l-0.019-0.006zM3.608 7.216c0-1.993 1.615-3.608 3.608-3.608s3.608 1.615 3.608 3.608v2.706h-7.216zM7.216 16.235c-0.66-0.004-1.236-0.362-1.547-0.893l-0.005-0.009h3.103c-0.315 0.541-0.891 0.901-1.551 0.906h-0.001zM12.628 13.529h-10.824v-0.902c0-0.498 0.404-0.902 0.902-0.902h9.020c0.498 0 0.902 0.404 0.902 0.902v0z"></path>
</symbol>
<symbol id="icon-bell-white" viewBox="0 0 14 18">
<path fill="#f2f8fc" style="fill: var(--color4, #f2f8fc)" d="M12.63 10.086v-2.87c-0.002-2.669-1.936-4.885-4.479-5.327l-0.032-0.005v-0.982c0-0.498-0.404-0.902-0.902-0.902s-0.902 0.404-0.902 0.902v0 0.984c-2.575 0.446-4.508 2.662-4.511 5.329v2.869c-1.058 0.382-1.801 1.377-1.804 2.545v1.804c0 0.498 0.404 0.902 0.902 0.902h2.833c0.429 1.548 1.825 2.665 3.482 2.665s3.053-1.117 3.476-2.639l0.006-0.025h2.833c0.498-0 0.902-0.404 0.902-0.902v-1.804c-0.003-1.168-0.746-2.162-1.785-2.538l-0.019-0.006zM3.608 7.216c0-1.993 1.615-3.608 3.608-3.608s3.608 1.615 3.608 3.608v2.706h-7.216zM7.216 16.235c-0.66-0.004-1.236-0.362-1.547-0.893l-0.005-0.009h3.103c-0.315 0.541-0.891 0.901-1.551 0.906h-0.001zM12.628 13.529h-10.824v-0.902c0-0.498 0.404-0.902 0.902-0.902h9.020c0.498 0 0.902 0.404 0.902 0.902v0z"></path>
</symbol>
<symbol id="icon-cart" viewBox="0 0 22 18">
<path fill="#fff" style="fill: var(--color2, #fff)" d="M21.772 2.567c-0.158-0.21-0.406-0.344-0.686-0.344-0.001 0-0.001 0-0.002 0h-16.143l-0.468-1.604c-0.106-0.361-0.435-0.619-0.823-0.619-0.001 0-0.002 0-0.003 0h-2.79c-0.463 0.014-0.833 0.392-0.833 0.857s0.37 0.844 0.832 0.857l0.001 0h2.148l3.419 11.68c0.107 0.361 0.435 0.619 0.824 0.619 0.001 0 0.001 0 0.002 0h10.886c0.001 0 0.002 0 0.003 0 0.389 0 0.717-0.259 0.822-0.613l0.002-0.006 2.949-10.072c0.021-0.071 0.034-0.153 0.034-0.237 0-0.195-0.065-0.375-0.175-0.519l0.002 0.002zM17.495 12.297h-9.606l-2.446-8.358h14.499z"></path>
<path fill="#fff" style="fill: var(--color2, #fff)" d="M11.542 16.843c0 0.639-0.518 1.157-1.157 1.157s-1.157-0.518-1.157-1.157c0-0.639 0.518-1.157 1.157-1.157s1.157 0.518 1.157 1.157z"></path>
<path fill="#fff" style="fill: var(--color2, #fff)" d="M16.158 16.843c0 0.639-0.518 1.157-1.157 1.157s-1.157-0.518-1.157-1.157c0-0.639 0.518-1.157 1.157-1.157s1.157 0.518 1.157 1.157z"></path>
</symbol>
<symbol id="icon-cart-ellipse" viewBox="0 0 21 18">
<path d="M10.457 0c5.229 0 10.457 1.768 10.457 7.543s-4.682 10.457-10.457 10.457-10.457-4.682-10.457-10.457v0c0-5.775 5.229-7.543 10.457-7.543z"></path>
</symbol>
<symbol id="icon-downloads" viewBox="0 0 24 18">
<path d="M5.072 4.638c0-0.463-0.375-0.838-0.838-0.838v0h-2.167c-1.144 0.008-2.068 0.937-2.068 2.081 0 0.003 0 0.007 0 0.010v-0.001 10.021c-0 0.002-0 0.005-0 0.008 0 1.145 0.924 2.074 2.067 2.081h19.983c1.14-0.012 2.059-0.939 2.059-2.081 0-0.003 0-0.006-0-0.009v0-10.021c0-0.002 0-0.005 0-0.008 0-1.145-0.924-2.074-2.067-2.081h-2.162c-0.448 0.019-0.804 0.386-0.804 0.837s0.356 0.818 0.802 0.837l0.002 0h2.168c0.219 0.009 0.392 0.188 0.392 0.408 0 0 0 0 0 0v10.028c0 0 0 0 0 0 0 0.22-0.174 0.399-0.391 0.408l-0.001 0h-19.98c-0.219-0.009-0.392-0.188-0.392-0.408 0-0 0-0 0-0v-10.021c0-0 0-0 0-0 0-0.22 0.174-0.399 0.391-0.408l0.001-0h2.168c0.462-0.001 0.836-0.376 0.836-0.838 0-0.002-0-0.005-0-0.007v0z"></path>
<path d="M11.221 0.839v8.005l-2.908-2.983c-0.15-0.142-0.353-0.23-0.576-0.23-0.463 0-0.838 0.375-0.838 0.838 0 0.216 0.082 0.413 0.216 0.561l-0.001-0.001 4.345 4.455c0.152 0.156 0.364 0.252 0.599 0.252s0.447-0.097 0.599-0.252l0-0 4.345-4.455c0.134-0.148 0.215-0.345 0.215-0.561 0-0.463-0.375-0.838-0.838-0.838-0.223 0-0.426 0.088-0.577 0.23l0-0-2.908 2.983v-8.005c0-0.010 0.001-0.022 0.001-0.034 0-0.463-0.375-0.838-0.838-0.838s-0.838 0.375-0.838 0.838c0 0.012 0 0.024 0.001 0.035l-0-0.002z"></path>
</symbol>
<symbol id="icon-facebook" viewBox="0 0 18 18">
<path fill="#a8b6d3" style="fill: var(--color5, #a8b6d3)" d="M17.010 0h-16.020c-0 0-0 0-0.001 0-0.546 0-0.989 0.443-0.989 0.989 0 0 0 0.001 0 0.001v-0 16.020c0 0 0 0 0 0.001 0 0.546 0.443 0.989 0.989 0.989 0 0 0.001 0 0.001 0h8.618v-6.975h-2.337v-2.7h2.337v-2.022c-0.011-0.1-0.017-0.216-0.017-0.333 0-1.692 1.283-3.085 2.93-3.257l0.014-0.001c0.1-0.011 0.217-0.018 0.335-0.018 0.081 0 0.161 0.003 0.241 0.009l-0.011-0.001c0.034-0 0.074-0 0.114-0 0.699 0 1.388 0.039 2.066 0.116l-0.083-0.008v2.427h-1.427c-1.134 0-1.35 0.538-1.35 1.323v1.741h2.7l-0.351 2.7h-2.348v7.002h4.59c0 0 0 0 0.001 0 0.546 0 0.989-0.443 0.989-0.989 0-0 0-0.001 0-0.001v0-16.024c0-0 0-0 0-0.001 0-0.546-0.443-0.989-0.989-0.989-0 0-0.001 0-0.001 0h0z"></path>
</symbol>
<symbol id="icon-home" viewBox="0 0 21 18">
<path fill="#435f95" style="fill: var(--color6, #435f95)" d="M10.421 0c-0.264 0.001-0.502 0.109-0.673 0.284l-0 0-9.558 8.337c-0.116 0.087-0.189 0.225-0.189 0.379 0 0.262 0.212 0.474 0.474 0.474h2.368v7.579c0 0.523 0.424 0.947 0.947 0.947v0h3.789c0.523 0 0.947-0.424 0.947-0.947v0-5.684h3.789v5.684c0 0.523 0.424 0.947 0.947 0.947v0h3.789c0.523 0 0.947-0.424 0.947-0.947v0-7.579h2.368c0.262 0 0.474-0.212 0.474-0.474 0-0.154-0.074-0.292-0.188-0.378l-0.001-0.001-9.558-8.337c-0.171-0.175-0.41-0.283-0.673-0.284h-0z"></path>
</symbol>
<symbol id="icon-instagram" viewBox="0 0 18 18">
<path fill="#a8b6d3" style="fill: var(--color5, #a8b6d3)" d="M13.806 3.114c-0.596 0-1.080 0.484-1.080 1.080s0.484 1.080 1.080 1.080c0.596 0 1.080-0.484 1.080-1.080v0c0-0.001 0-0.002 0-0.004 0-0.594-0.482-1.076-1.076-1.076-0.001 0-0.003 0-0.004 0h0zM17.946 5.292c-0.019-0.79-0.169-1.539-0.43-2.234l0.015 0.047c-0.241-0.623-0.596-1.154-1.043-1.592l-0.001-0.001c-0.435-0.45-0.967-0.803-1.564-1.025l-0.029-0.010c-0.648-0.253-1.397-0.406-2.18-0.423l-0.007-0c-0.955-0.055-1.261-0.055-3.709-0.055s-2.754 0-3.708 0.054c-0.79 0.017-1.539 0.17-2.232 0.438l0.045-0.015c-0.624 0.235-1.156 0.588-1.592 1.034l-0.001 0.001c-0.45 0.435-0.803 0.967-1.025 1.564l-0.010 0.029c-0.253 0.648-0.406 1.397-0.423 2.18l-0 0.007c-0.055 0.955-0.055 1.261-0.055 3.708s0 2.754 0.054 3.708c0.017 0.79 0.17 1.539 0.438 2.232l-0.015-0.045c0.232 0.626 0.585 1.158 1.034 1.592l0.001 0.001c0.436 0.449 0.968 0.802 1.563 1.028l0.030 0.010c0.648 0.253 1.397 0.406 2.18 0.423l0.007 0c0.954 0.054 1.26 0.054 3.708 0.054s2.754 0 3.708-0.054c0.79-0.017 1.539-0.17 2.232-0.438l-0.045 0.015c0.626-0.232 1.159-0.586 1.592-1.036l0.001-0.001c0.449-0.437 0.805-0.969 1.034-1.563l0.010-0.030c0.245-0.648 0.395-1.397 0.414-2.179l0-0.008c0-0.954 0.054-1.26 0.054-3.708s0-2.754-0.054-3.708zM16.326 12.599c-0.007 0.603-0.119 1.177-0.319 1.709l0.011-0.035c-0.152 0.406-0.382 0.752-0.674 1.034l-0.001 0.001c-0.285 0.29-0.63 0.519-1.015 0.668l-0.020 0.007c-0.497 0.188-1.071 0.3-1.671 0.307l-0.003 0c-0.9 0.045-1.23 0.054-3.6 0.054s-2.7 0-3.6-0.054c-0.028 0.001-0.061 0.001-0.094 0.001-0.591 0-1.159-0.099-1.688-0.282l0.036 0.011c-0.387-0.163-0.716-0.391-0.989-0.674l-0.001-0.001c-0.291-0.282-0.519-0.628-0.66-1.016l-0.006-0.019c-0.21-0.505-0.34-1.090-0.36-1.702l-0-0.008c0-0.9-0.054-1.23-0.054-3.6s0-2.7 0.054-3.6c0.004-0.616 0.119-1.203 0.327-1.745l-0.011 0.034c0.166-0.392 0.407-0.723 0.708-0.987l0.003-0.003c0.269-0.304 0.599-0.547 0.971-0.712l0.018-0.007c0.508-0.19 1.095-0.302 1.708-0.307l0.002-0c0.9 0 1.23-0.054 3.6-0.054s2.7 0 3.6 0.054c0.603 0.007 1.177 0.119 1.709 0.319l-0.035-0.011c0.423 0.16 0.781 0.406 1.069 0.718l0.002 0.002c0.289 0.27 0.518 0.601 0.669 0.971l0.007 0.018c0.192 0.508 0.304 1.096 0.307 1.709v0.001c0.045 0.9 0.054 1.23 0.054 3.6s-0.008 2.7-0.055 3.6zM9 4.381c-2.541 0.008-4.599 2.070-4.599 4.612 0 2.547 2.065 4.612 4.612 4.612s4.612-2.065 4.612-4.612c0-2.542-2.057-4.604-4.598-4.612h-0.001zM9 11.995c-1.656 0-2.998-1.342-2.998-2.998s1.342-2.998 2.998-2.998c1.656 0 2.998 1.342 2.998 2.998v0c0 0 0 0.001 0 0.002 0 1.656-1.342 2.998-2.998 2.998v0z"></path>
</symbol>
<symbol id="icon-nav-menu" viewBox="0 0 30 18">
<path fill="#516ca3" style="fill: var(--color7, #516ca3)" d="M4.5 3h21c0.829 0 1.5-0.672 1.5-1.5s-0.672-1.5-1.5-1.5v0h-21c-0.829 0-1.5 0.672-1.5 1.5s0.672 1.5 1.5 1.5v0zM28.5 7.5h-27c-0.829 0-1.5 0.672-1.5 1.5s0.672 1.5 1.5 1.5v0h27c0.829 0 1.5-0.672 1.5-1.5s-0.672-1.5-1.5-1.5v0zM25.499 15.001h-20.999c-0.828 0-1.5 0.671-1.5 1.5s0.671 1.5 1.5 1.5h21c0.829 0 1.5-0.672 1.5-1.5s-0.672-1.5-1.5-1.5v0z"></path>
</symbol>
<symbol id="icon-network" viewBox="0 0 22 18">
<path fill="#e28519" style="fill: var(--color8, #e28519)" d="M10.9 12.002c-1.656 0-2.999 1.343-2.999 2.999s1.343 2.999 2.999 2.999c1.656 0 2.999-1.343 2.999-2.999v0c0-1.656-1.343-2.999-2.999-2.999v0zM10.9 16.001c-0.552 0-1-0.448-1-1s0.448-1 1-1c0.552 0 1 0.448 1 1v0c0 0.552-0.448 1-1 1v0zM10.9 8.004c-1.931 0.007-3.678 0.788-4.948 2.050l0-0c-0.214 0.184-0.349 0.456-0.349 0.759 0 0.552 0.448 1 1 1 0.303 0 0.575-0.135 0.758-0.348l0.001-0.001c0.905-0.907 2.156-1.468 3.539-1.468s2.634 0.561 3.539 1.468l0 0c0.186 0.199 0.449 0.322 0.742 0.322 0.56 0 1.015-0.454 1.015-1.015 0-0.28-0.113-0.534-0.297-0.717v0c-1.275-1.267-3.032-2.049-4.972-2.049-0.009 0-0.018 0-0.027 0h0.001zM10.9 4.005c-3.035 0.008-5.782 1.236-7.778 3.219l0.001-0.001c-0.182 0.182-0.294 0.433-0.294 0.71 0 0.554 0.449 1.004 1.004 1.004 0.277 0 0.528-0.112 0.71-0.294v0c1.628-1.626 3.875-2.631 6.358-2.631s4.73 1.005 6.358 2.631l-0-0c0.182 0.182 0.433 0.294 0.71 0.294 0.554 0 1.004-0.449 1.004-1.004 0-0.277-0.112-0.528-0.294-0.71v0c-1.995-1.982-4.742-3.21-7.775-3.219h-0.002zM21.506 4.395c-2.714-2.715-6.464-4.395-10.606-4.395s-7.892 1.68-10.606 4.395l-0 0c-0.182 0.182-0.294 0.433-0.294 0.71 0 0.554 0.449 1.004 1.004 1.004 0.277 0 0.528-0.112 0.71-0.294v0c2.351-2.35 5.599-3.804 9.186-3.804s6.835 1.454 9.186 3.804l-0-0c0.182 0.182 0.433 0.294 0.71 0.294 0.554 0 1.004-0.449 1.004-1.004 0-0.277-0.112-0.528-0.294-0.71v0z"></path>
</symbol>
<symbol id="icon-pdf" viewBox="0 0 15 18">
<path d="M13.711 0h-8.37c-0.191 0.001-0.365 0.077-0.492 0.201l0-0-4.638 4.539c-0.13 0.128-0.211 0.306-0.211 0.502v11.022c0.008 0.96 0.788 1.736 1.749 1.736 0.003 0 0.006 0 0.010-0h11.952c0.003 0 0.006 0 0.009 0 0.961 0 1.741-0.775 1.749-1.735v-14.529c-0.008-0.96-0.788-1.736-1.749-1.736-0.003 0-0.006 0-0.010 0h0zM4.638 2.376v2.165h-2.211zM14.062 16.264c-0.006 0.184-0.157 0.33-0.341 0.33-0.004 0-0.007-0-0.011-0l0.001 0h-11.953c-0.003 0-0.007 0-0.010 0-0.185 0-0.335-0.146-0.341-0.329l-0-0.001v-10.316h3.934c0.389 0 0.704-0.315 0.704-0.704v0-3.834h7.666c0.003-0 0.007-0 0.010-0 0.185 0 0.335 0.146 0.341 0.329l0 0.001z"></path>
</symbol>
<symbol id="icon-profile" viewBox="0 0 18 18">
<path d="M9.030 0c-4.981 0.015-9.015 4.049-9.030 9.029v0.001c-0 0.023-0 0.051-0 0.078 0 2.31 0.893 4.412 2.353 5.978l-0.005-0.005c1.651 1.797 4.013 2.92 6.637 2.92 2.355 0 4.498-0.904 6.102-2.384l-0.006 0.006 0.542-0.542c1.475-1.598 2.38-3.741 2.38-6.096 0-2.624-1.123-4.986-2.915-6.631l-0.007-0.006c-1.561-1.455-3.663-2.348-5.973-2.348-0.027 0-0.055 0-0.082 0l0.004-0zM9.030 16.255c-0.002 0-0.004 0-0.007 0-1.953 0-3.73-0.755-5.054-1.989l0.004 0.004c0.842-1.991 2.779-3.363 5.037-3.363 0.723 0 1.412 0.141 2.043 0.396l-0.037-0.013c1.362 0.557 2.423 1.618 2.967 2.944l0.013 0.036c-1.265 1.228-2.993 1.986-4.898 1.986-0.024 0-0.049-0-0.073-0l0.004 0zM7.225 7.225c0-0.998 0.809-1.806 1.806-1.806s1.806 0.809 1.806 1.806c0 0.998-0.809 1.806-1.806 1.806v0c-0.996-0.003-1.803-0.81-1.806-1.806v-0zM15.262 12.642c-0.837-1.355-2.041-2.413-3.473-3.050l-0.049-0.020c0.567-0.619 0.914-1.448 0.914-2.357 0-1.085-0.494-2.054-1.269-2.695l-0.006-0.005c-0.637-0.551-1.473-0.886-2.387-0.886-1.052 0-2.001 0.444-2.668 1.155l-0.002 0.002c-0.547 0.64-0.881 1.478-0.881 2.393s0.333 1.753 0.885 2.398l-0.004-0.005c-1.482 0.657-2.685 1.715-3.503 3.037l-0.019 0.033c-0.624-1.047-0.994-2.308-0.994-3.656 0-3.99 3.235-7.225 7.225-7.225s7.225 3.235 7.225 7.225c0 1.348-0.369 2.61-1.012 3.69l0.018-0.033z"></path>
</symbol>
<symbol id="icon-star" viewBox="0 0 19 18">
<path fill="#435f95" style="fill: var(--color6, #435f95)" d="M18.699 6.875l-6.794-0.447-2.562-6.429-2.556 6.429-6.787 0.447 5.206 4.42-1.708 6.705 5.845-3.697 5.849 3.697-1.705-6.705z"></path>
</symbol>
<symbol id="icon-star-secondary" viewBox="0 0 19 18">
<path d="M18.699 6.875l-6.794-0.447-2.562-6.429-2.556 6.429-6.787 0.447 5.206 4.42-1.708 6.705 5.845-3.697 5.849 3.697-1.705-6.705z"></path>
</symbol>
<symbol id="icon-twitter" viewBox="0 0 22 18">
<path fill="#a8b6d3" style="fill: var(--color5, #a8b6d3)" d="M22.112 2.157c-0.759 0.339-1.641 0.588-2.563 0.703l-0.046 0.005c0.94-0.568 1.647-1.44 1.992-2.478l0.009-0.032c-0.831 0.503-1.797 0.886-2.827 1.095l-0.058 0.010c-0.831-0.902-2.018-1.465-3.337-1.465-2.503 0-4.533 2.029-4.533 4.533 0 0.379 0.046 0.746 0.134 1.098l-0.007-0.031c-3.775-0.198-7.095-1.995-9.321-4.72l-0.018-0.023c-0.381 0.657-0.606 1.445-0.606 2.286 0 0.001 0 0.002 0 0.003v-0c0 0.002 0 0.004 0 0.006 0 1.563 0.792 2.94 1.996 3.754l0.016 0.010c-0.758-0.022-1.464-0.228-2.079-0.576l0.022 0.012v0.056c0.012 2.181 1.562 3.996 3.619 4.417l0.029 0.005c-0.362 0.114-0.778 0.182-1.21 0.188l-0.003 0c-0.303-0.003-0.597-0.031-0.884-0.080l0.033 0.005c0.602 1.81 2.262 3.099 4.23 3.14l0.005 0c-1.524 1.208-3.473 1.94-5.593 1.946h-0.001c-0.003 0-0.006 0-0.010 0-0.388 0-0.77-0.025-1.144-0.074l0.044 0.005c1.973 1.283 4.386 2.045 6.978 2.045 7.052 0 12.784-5.647 12.922-12.666l0-0.013v-0.819c0.869-0.652 1.602-1.428 2.19-2.309l0.021-0.034z"></path>
</symbol>
<symbol id="icon-user-bluegray" viewBox="0 0 13 18">
<path d="M6.539 0c-2.853 0-5.166 2.313-5.166 5.166s2.313 5.166 5.166 5.166c2.853 0 5.166-2.313 5.166-5.166v0c-0.004-2.851-2.314-5.162-5.165-5.166h-0zM6.539 8.926c-2.077 0-3.76-1.683-3.76-3.76s1.683-3.76 3.76-3.76c2.077 0 3.76 1.683 3.76 3.76v0c-0.002 2.076-1.684 3.758-3.76 3.76h-0z"></path>
<path d="M6.798 11.017h-0.518c-3.467 0.004-6.276 2.814-6.28 6.28v0c0 0.388 0.315 0.703 0.703 0.703v0h11.671c0.388 0 0.703-0.315 0.703-0.703v0c-0.004-3.467-2.813-6.276-6.279-6.281h-0zM1.457 16.594c0.358-2.371 2.381-4.168 4.823-4.171h0.518c2.443 0.003 4.465 1.8 4.82 4.144l0.003 0.027z"></path>
</symbol>
<symbol id="icon-user-secondary" viewBox="0 0 13 18">
<path d="M6.539 0c-2.853 0-5.166 2.313-5.166 5.166s2.313 5.166 5.166 5.166c2.853 0 5.166-2.313 5.166-5.166v0c-0.004-2.851-2.314-5.162-5.165-5.166h-0zM6.539 8.926c-2.077 0-3.76-1.683-3.76-3.76s1.683-3.76 3.76-3.76c2.077 0 3.76 1.683 3.76 3.76v0c-0.002 2.076-1.684 3.758-3.76 3.76h-0z"></path>
<path d="M6.798 11.017h-0.518c-3.467 0.004-6.276 2.814-6.28 6.28v0c0 0.388 0.315 0.703 0.703 0.703v0h11.671c0.388 0 0.703-0.315 0.703-0.703v0c-0.004-3.467-2.813-6.276-6.279-6.281h-0zM1.457 16.594c0.358-2.371 2.381-4.168 4.823-4.171h0.518c2.443 0.003 4.465 1.8 4.82 4.144l0.003 0.027z"></path>
</symbol>
<symbol id="icon-video-cam" viewBox="0 0 30 18">
<path fill="#e21956" style="fill: var(--color9, #e21956)" d="M29.295 1.726c-0.215-0.126-0.474-0.201-0.75-0.201s-0.535 0.075-0.757 0.205l0.007-0.004-5.295 2.609c-0.091-2.413-2.068-4.334-4.495-4.334-0.002 0-0.004 0-0.006 0h-13.502c-2.484 0-4.498 2.014-4.498 4.498v0 8.996c0 2.484 2.014 4.498 4.498 4.498v0h13.494c0.001 0 0.002 0 0.003 0 2.427 0 4.405-1.922 4.495-4.326l0-0.008 5.34 2.67c0.196 0.102 0.429 0.162 0.675 0.162 0.82 0 1.486-0.665 1.486-1.486 0-0.004-0-0.008-0-0.011v0.001-11.995c0-0.002 0-0.005 0-0.007 0-0.53-0.275-0.996-0.69-1.262l-0.006-0.004zM19.501 13.494c0 0.828-0.671 1.499-1.499 1.499v0h-13.503c-0.828 0-1.499-0.671-1.499-1.499v0-8.996c0-0.828 0.671-1.499 1.499-1.499v0h13.494c0.828 0 1.499 0.671 1.499 1.499v0zM26.998 12.565l-4.498-2.249v-2.635l4.498-2.249z"></path>
</symbol>
<symbol id="icon-video-cam-secondary" viewBox="0 0 27 18">
<path d="M26.681 2.847c-0.171-0.124-0.386-0.199-0.618-0.199-0.121 0-0.237 0.020-0.346 0.058l0.007-0.002-5.45 1.832v-1.889c0-0.004 0-0.008 0-0.012 0-1.448-1.169-2.624-2.615-2.634h-15.044c-1.447 0.010-2.617 1.185-2.617 2.634 0 0.004 0 0.009 0 0.013v-0.001 12.706c-0 0.004-0 0.008-0 0.012 0 1.449 1.17 2.624 2.616 2.634h15.045c1.447-0.010 2.617-1.185 2.617-2.634 0-0.004-0-0.009-0-0.013v0.001-1.887l5.45 1.832c0.101 0.035 0.217 0.056 0.339 0.056 0.585 0 1.059-0.474 1.059-1.059 0-0 0-0 0-0v0-10.587c-0.001-0.353-0.175-0.665-0.442-0.857l-0.003-0.002zM25.003 12.821l-5.45-1.832c-0.101-0.035-0.217-0.055-0.337-0.055-0.585 0-1.060 0.474-1.061 1.059v3.361c0 0.005 0 0.010 0 0.016 0 0.278-0.221 0.505-0.497 0.514l-0.001 0h-15.041c-0.277-0.009-0.497-0.236-0.497-0.514 0-0.006 0-0.011 0-0.016l-0 0.001v-12.707c-0-0.005-0-0.010-0-0.016 0-0.278 0.221-0.505 0.497-0.514l0.001-0h15.044c0.277 0.009 0.497 0.236 0.497 0.514 0 0.006-0 0.011-0 0.016l0-0.001v3.358c0 0 0 0 0 0 0 0.585 0.474 1.059 1.059 1.059 0.121 0 0.238-0.020 0.346-0.058l-0.007 0.002 5.45-1.832z"></path>
</symbol>
<symbol id="icon-video-cam-white" viewBox="0 0 27 18">
<path fill="#fff" style="fill: var(--color2, #fff)" d="M26.665 2.846c-0.171-0.124-0.386-0.199-0.617-0.199-0.121 0-0.237 0.020-0.346 0.058l0.007-0.002-5.447 1.833v-1.889c0-0.005 0-0.011 0-0.017 0-1.447-1.169-2.621-2.614-2.629h-15.035c-1.445 0.009-2.614 1.183-2.614 2.629 0 0.006 0 0.012 0 0.018v-0.001 12.706c-0 0.005-0 0.011-0 0.017 0 1.447 1.168 2.62 2.613 2.629h15.035c1.445-0.009 2.614-1.183 2.614-2.629 0-0.006-0-0.012-0-0.018v0.001-1.888l5.447 1.833c0.101 0.035 0.217 0.055 0.338 0.055 0.584 0 1.058-0.474 1.058-1.058 0-0 0-0 0-0v0-10.588c0-0 0-0.001 0-0.002 0-0.352-0.172-0.664-0.436-0.856l-0.003-0.002zM24.989 12.82l-5.447-1.833c-0.1-0.035-0.216-0.055-0.337-0.055-0.585 0-1.059 0.473-1.060 1.058v3.362c0 0.004 0 0.008 0 0.012 0 0.278-0.221 0.504-0.496 0.514l-0.001 0h-15.036c-0.277-0.009-0.497-0.236-0.497-0.514 0-0.004 0-0.009 0-0.013l-0 0.001v-12.706c-0-0.004-0-0.008-0-0.012 0-0.278 0.221-0.504 0.496-0.514l0.001-0h15.034c0.277 0.009 0.497 0.236 0.497 0.514 0 0.004-0 0.009-0 0.013l0-0.001v3.362c0.001 0.584 0.475 1.058 1.060 1.058 0.12 0 0.236-0.020 0.344-0.057l-0.007 0.002 5.447-1.833z"></path>
</symbol>
<symbol id="icon-voice" viewBox="0 0 13 18">
<path fill="#1dd950" style="fill: var(--color10, #1dd950)" d="M6.545 11.455c1.807 0 3.273-1.465 3.273-3.273v0-4.909c0-1.807-1.465-3.273-3.273-3.273s-3.273 1.465-3.273 3.273v0 4.909c0 1.807 1.465 3.273 3.273 3.273v0zM4.909 3.273c0-0.904 0.733-1.636 1.636-1.636s1.636 0.733 1.636 1.636v4.909c0 0.904-0.733 1.636-1.636 1.636s-1.636-0.733-1.636-1.636v0zM13.091 8.182c0-0.452-0.366-0.818-0.818-0.818s-0.818 0.366-0.818 0.818v0c0 2.711-2.198 4.909-4.909 4.909s-4.909-2.198-4.909-4.909v0c0-0.452-0.366-0.818-0.818-0.818s-0.818 0.366-0.818 0.818v0c0.002 3.325 2.483 6.069 5.694 6.487l0.033 0.003v1.692h-1.636c-0.452 0-0.818 0.366-0.818 0.818s0.366 0.818 0.818 0.818h4.909c0.452 0 0.818-0.366 0.818-0.818s-0.366-0.818-0.818-0.818v0h-1.635v-1.692c3.244-0.421 5.724-3.166 5.726-6.49v-0z"></path>
</symbol>
<symbol id="icon-word" viewBox="0 0 15 18">
<path d="M13.711 0h-8.37c-0.191 0.001-0.365 0.077-0.492 0.201l0-0-4.638 4.539c-0.13 0.128-0.211 0.306-0.211 0.502v11.022c0.008 0.96 0.788 1.736 1.749 1.736 0.003 0 0.006 0 0.010-0h11.952c0.003 0 0.006 0 0.009 0 0.961 0 1.741-0.775 1.749-1.735v-14.529c-0.008-0.96-0.788-1.736-1.749-1.736-0.003 0-0.006 0-0.010 0h0zM4.638 2.376v2.165h-2.211zM14.062 16.264c-0.006 0.184-0.157 0.33-0.341 0.33-0.004 0-0.007-0-0.011-0l0.001 0h-11.953c-0.003 0-0.007 0-0.010 0-0.185 0-0.335-0.146-0.341-0.329l-0-0.001v-10.316h3.934c0.389 0 0.704-0.315 0.704-0.704v0-3.834h7.666c0.003-0 0.007-0 0.010-0 0.185 0 0.335 0.146 0.341 0.329l0 0.001z"></path>
</symbol>
</defs>
</svg>
